<?xml version="1.0" encoding="utf-8"?>
<!-- Generator: Adobe Illustrator 22.1.0, SVG Export Plug-In . SVG Version: 6.00 Build 0)  -->
<svg version="1.1" id="Layer_1" xmlns="http://www.w3.org/2000/svg" xmlns:xlink="http://www.w3.org/1999/xlink" x="0px" y="0px"
	 viewBox="0 0 77.1 45.8" style="enable-background:new 0 0 77.1 45.8;" xml:space="preserve">
<style type="text/css">
	.st0{fill:#004250;}
</style>
<title>logo</title>
<desc>Created with Sketch.</desc>
<g id="Symbols">
	<g id="logo-_x2F_-no-byline-_x2F_-brand-blue">
		<g id="logo">
			<g id="Group-42" transform="translate(0.465116, 0.295814)">
				<path id="Fill-36" class="st0" d="M20.7,28V7.7h-7V28c0,1.9-1.6,3.5-3.5,3.5S6.7,29.9,6.7,28V7.7h-7V28
					c0,5.8,4.7,10.6,10.6,10.6C15.9,38.5,20.7,33.8,20.7,28"/>
				<path id="Fill-38" class="st0" d="M48.7,26.1h-7v8.8c0,1.9-1.6,3.5-3.5,3.5s-3.5-1.6-3.5-3.5V10.3c0-1.9,1.6-3.5,3.5-3.5
					s3.5,1.6,3.5,3.5v8.8h7v-8.8c0-5.8-4.7-10.6-10.6-10.6S27.5,4.4,27.5,10.3V35c0,5.8,4.7,10.6,10.6,10.6S48.7,40.9,48.7,35
					C48.7,35,48.7,26.1,48.7,26.1z"/>
				<path id="Fill-40" class="st0" d="M69.6,37.5h7V17.3c0-5.8-4.7-10.6-10.6-10.6c-5.8,0-10.6,4.7-10.6,10.6v20.3h7V17.3
					c0-1.9,1.6-3.5,3.5-3.5s3.5,1.6,3.5,3.5v20.2H69.6z"/>
			</g>
		</g>
	</g>
</g>
</svg>
